<?xml version="1.0" encoding="UTF-8" standalone="no"?>
<!-- Created with Inkscape (http://www.inkscape.org/) -->

<svg
   width="155.2"
   height="71"
   viewBox="0 0 41.063333 18.785418"
   version="1.1"
   id="svg1"
   xml:space="preserve"
   xmlns="http://www.w3.org/2000/svg"
   xmlns:svg="http://www.w3.org/2000/svg"><defs
     id="defs1"><style
       id="style1">      .st0 {        fill: url(#linear-gradient6);      }      .st1 {        fill: url(#linear-gradient8);      }      .st2 {        fill: url(#linear-gradient7);      }      .st3 {        fill: url(#linear-gradient5);      }      .st4 {        fill: url(#linear-gradient4);      }      .st5, .st6 {        fill: #fff;      }      .st7 {        fill: url(#linear-gradient);      }      .st7, .st8, .st9, .st10 {        opacity: .3;      }      .st7, .st8, .st9, .st10, .st6 {        isolation: isolate;      }      .st8 {        fill: url(#linear-gradient1);      }      .st9 {        fill: url(#linear-gradient2);      }      .st10 {        fill: url(#linear-gradient3);      }      .st6 {        opacity: .7;      }    </style><linearGradient
       id="linear-gradient"
       x1="-42.400002"
       y1="297.20001"
       x2="-35.099998"
       y2="330.20001"
       gradientTransform="matrix(-1.3479238,0.86203326,0.86203326,1.3479238,-182.8,-373.3)"
       gradientUnits="userSpaceOnUse"><stop
         offset="0"
         stop-color="#fff"
         id="stop1" /><stop
         offset="1"
         stop-color="#fff"
         stop-opacity=".8"
         id="stop2" /></linearGradient><linearGradient
       id="linear-gradient1"
       x1="-44.099998"
       y1="297.60001"
       x2="-36.799999"
       y2="330.60001"
       gradientTransform="matrix(-1.3479238,0.86203326,0.86203326,1.3479238,-182.8,-373.3)"
       gradientUnits="userSpaceOnUse"><stop
         offset="0"
         stop-color="#fff"
         id="stop3" /><stop
         offset="1"
         stop-color="#fff"
         stop-opacity=".8"
         id="stop4" /></linearGradient><linearGradient
       id="linear-gradient2"
       x1="-26.4"
       y1="293.60001"
       x2="-19.1"
       y2="326.70001"
       gradientTransform="matrix(-1.3479238,0.86203326,0.86203326,1.3479238,-182.9,-373.2)"
       gradientUnits="userSpaceOnUse"><stop
         offset="0"
         stop-color="#fff"
         id="stop5" /><stop
         offset="1"
         stop-color="#fff"
         stop-opacity=".8"
         id="stop6" /></linearGradient><linearGradient
       id="linear-gradient3"
       x1="-24.4"
       y1="293.29999"
       x2="-17.1"
       y2="326.29999"
       gradientTransform="matrix(-1.3479238,0.86203326,0.86203326,1.3479238,-182.8,-373.3)"
       gradientUnits="userSpaceOnUse"><stop
         offset="0"
         stop-color="#fff"
         id="stop7" /><stop
         offset="1"
         stop-color="#fff"
         stop-opacity=".8"
         id="stop8" /></linearGradient><linearGradient
       id="linear-gradient4"
       x1="-42.099998"
       y1="303.20001"
       x2="-19"
       y2="322"
       gradientTransform="matrix(-1.3479238,0.86203326,0.86203326,1.3479238,-183,-373.3)"
       gradientUnits="userSpaceOnUse"><stop
         offset="0"
         stop-color="#fff"
         id="stop9" /><stop
         offset="1"
         stop-color="#fff"
         stop-opacity=".8"
         id="stop10" /></linearGradient><linearGradient
       id="linear-gradient5"
       x1="-38.799999"
       y1="299"
       x2="-15.7"
       y2="317.79999"
       gradientTransform="matrix(-1.3479238,0.86203326,0.86203326,1.3479238,-183,-373.3)"
       gradientUnits="userSpaceOnUse"><stop
         offset="0"
         stop-color="#fff"
         id="stop11" /><stop
         offset="1"
         stop-color="#fff"
         stop-opacity=".8"
         id="stop12" /></linearGradient><linearGradient
       id="linear-gradient6"
       x1="-42.900002"
       y1="304.20001"
       x2="-19.9"
       y2="323"
       gradientTransform="matrix(-1.3479238,0.86203326,0.86203326,1.3479238,-183,-373.3)"
       gradientUnits="userSpaceOnUse"><stop
         offset="0"
         stop-color="#fff"
         id="stop13" /><stop
         offset="1"
         stop-color="#fff"
         stop-opacity=".8"
         id="stop14" /></linearGradient><linearGradient
       id="linear-gradient7"
       x1="-47"
       y1="309.29999"
       x2="-24"
       y2="328.10001"
       gradientTransform="matrix(-1.3479238,0.86203326,0.86203326,1.3479238,-183,-373.3)"
       gradientUnits="userSpaceOnUse"><stop
         offset="0"
         stop-color="#fff"
         id="stop15" /><stop
         offset="1"
         stop-color="#fff"
         stop-opacity=".8"
         id="stop16" /></linearGradient><linearGradient
       id="linear-gradient8"
       x1="-43.700001"
       y1="305.10001"
       x2="-20.6"
       y2="323.89999"
       gradientTransform="matrix(-1.3479238,0.86203326,0.86203326,1.3479238,-183,-373.3)"
       gradientUnits="userSpaceOnUse"><stop
         offset="0"
         stop-color="#fff"
         id="stop17" /><stop
         offset="1"
         stop-color="#fff"
         stop-opacity=".8"
         id="stop18" /></linearGradient><clipPath
       clipPathUnits="userSpaceOnUse"
       id="clipPath48"><path
         id="path48"
         style="display:inline;fill:none;stroke-width:0.370948"
         d="m 20.671606,-1.2417847 c -0.170721,0 -0.307991,0.077999 -0.307991,0.1746423 v 8.9600001 c 0,0.096643 0.13727,0.1743498 0.307991,0.1743498 h 10.903728 c 0.170722,0 0.307991,-0.077707 0.307991,-0.1743498 v -8.9600001 c 0,-0.096643 -0.137269,-0.1746423 -0.307991,-0.1746423 z m 4.609538,0.77404285 h 3.574458 c 0.13896,0 0.250632,0.0632164 0.250632,0.14187859 V 6.9672827 c 0,0.078662 -0.111672,0.1418781 -0.250632,0.1418781 h -3.574458 c -0.138958,0 -0.251147,-0.063216 -0.251147,-0.1418781 v -7.29314596 c 0,-0.0786622 0.112189,-0.14187859 0.251147,-0.14187859 z" /></clipPath></defs><g
     id="g25"
     transform="matrix(0.06658126,0,0,0.06658126,0.13455333,0.53145219)"
     style="fill:#ffffff"><path
       d="M 15.5,23.2 C 15.1,23.2 15,23 15.2,22.7 L 17.3,20 c 0.2,-0.3 0.7,-0.5 1.1,-0.5 h 35.7 c 0.4,0 0.5,0.3 0.3,0.6 l -1.7,2.6 c -0.2,0.3 -0.7,0.6 -1,0.6 z M 0.4,32.4 C 0,32.4 -0.1,32.2 0.1,31.9 l 2.1,-2.7 c 0.2,-0.3 0.7,-0.5 1.1,-0.5 h 45.6 c 0.4,0 0.6,0.3 0.5,0.6 l -0.8,2.4 c -0.1,0.4 -0.5,0.6 -0.9,0.6 z m 24.2,9.2 c -0.4,0 -0.5,-0.3 -0.3,-0.6 l 1.4,-2.5 c 0.2,-0.3 0.6,-0.6 1,-0.6 h 20 c 0.4,0 0.6,0.3 0.6,0.7 L 47.1,41 c 0,0.4 -0.4,0.7 -0.7,0.7 z M 128.4,21.4 c -6.3,1.6 -10.6,2.8 -16.8,4.4 -1.5,0.4 -1.6,0.5 -2.9,-1 -1.5,-1.7 -2.6,-2.8 -4.7,-3.8 -6.3,-3.1 -12.4,-2.2 -18.1,1.5 -6.8,4.4 -10.3,10.9 -10.2,19 0.1,8 5.6,14.6 13.5,15.7 6.8,0.9 12.5,-1.5 17,-6.6 0.9,-1.1 1.7,-2.3 2.7,-3.7 H 89.6 c -2.1,0 -2.6,-1.3 -1.9,-3 1.3,-3.1 3.7,-8.3 5.1,-10.9 0.3,-0.6 1,-1.6 2.5,-1.6 h 36.4 c -0.2,2.7 -0.2,5.4 -0.6,8.1 -1.1,7.2 -3.8,13.8 -8.2,19.6 -7.2,9.5 -16.6,15.4 -28.5,17 C 84.6,77.4 75.5,75.5 67.5,69.5 60.1,63.9 55.9,56.5 54.8,47.3 53.5,36.4 56.7,26.6 63.3,18 70.4,8.7 79.8,2.8 91.3,0.7 c 9.4,-1.7 18.4,-0.6 26.5,4.9 5.3,3.5 9.1,8.3 11.6,14.1 0.6,0.9 0.2,1.4 -1,1.7 z"
       id="path1-9"
       style="fill:#ffffff" /><path
       d="m 161.5,76.7 c -9.1,-0.2 -17.4,-2.8 -24.4,-8.8 -5.9,-5.1 -9.6,-11.6 -10.8,-19.3 -1.8,-11.3 1.3,-21.3 8.1,-30.2 7.3,-9.6 16.1,-14.6 28,-16.7 10.2,-1.8 19.8,-0.8 28.5,5.1 7.9,5.4 12.8,12.7 14.1,22.3 1.7,13.5 -2.2,24.5 -11.5,33.9 -6.6,6.7 -14.7,10.9 -24,12.8 -2.7,0.5 -5.4,0.6 -8,0.9 z M 185.3,36.3 C 185.2,35 185.2,34 185,33 183.2,23.1 174.1,17.5 164.6,19.7 c -9.3,2.1 -15.3,8 -17.5,17.4 -1.8,7.8 2,15.7 9.2,18.9 5.5,2.4 11,2.1 16.3,-0.6 7.9,-4.1 12.2,-10.5 12.7,-19.1 z"
       id="path2-3"
       style="fill:#ffffff" /></g><g
     id="layer2"
     transform="translate(0,5.6194116)"><g
       id="g48"
       clip-path="url(#clipPath48)"><path
         fill-rule="evenodd"
         clip-rule="evenodd"
         fill="#f6d2a2"
         stroke="#000000"
         stroke-width="3"
         stroke-linecap="round"
         d="m 10.634,300.493 c 0.764,15.751 16.499,8.463 23.626,3.539 6.765,-4.675 8.743,-0.789 9.337,-10.015 0.389,-6.064 1.088,-12.128 0.744,-18.216 -10.23,-0.927 -21.357,1.509 -29.744,7.602 -4.32,3.139 -12.42,13.158 -3.963,17.09"
         id="path1"
         transform="matrix(0.00963474,-0.01007256,0.01007256,0.00963474,19.897979,2.4361813)" /><path
         fill-rule="evenodd"
         clip-rule="evenodd"
         fill="#c6b198"
         stroke="#000000"
         stroke-width="3"
         stroke-linecap="round"
         d="m 10.634,300.493 c 2.29,-0.852 4.717,-1.457 6.271,-3.528"
         id="path2"
         transform="matrix(0.00963474,-0.01007256,0.01007256,0.00963474,19.897979,2.4361813)" /><path
         fill-rule="evenodd"
         clip-rule="evenodd"
         fill="#6ad7e5"
         stroke="#000000"
         stroke-width="3"
         stroke-linecap="round"
         d="M 46.997,112.853 C -13.3,95.897 31.536,19.189 79.956,50.74 Z"
         id="path3"
         transform="matrix(0.00963474,-0.01007256,0.01007256,0.00963474,19.897979,2.4361813)" /><path
         fill-rule="evenodd"
         clip-rule="evenodd"
         fill="#6ad7e5"
         stroke="#000000"
         stroke-width="3"
         stroke-linecap="round"
         d="m 314.895,44.984 c 47.727,-33.523 90.856,42.111 35.388,61.141 z"
         id="path4"
         transform="matrix(0.00963474,-0.01007256,0.01007256,0.00963474,19.897979,2.4361813)" /><path
         fill-rule="evenodd"
         clip-rule="evenodd"
         fill="#f6d2a2"
         stroke="#000000"
         stroke-width="3"
         stroke-linecap="round"
         d="m 325.161,494.343 c 12.123,7.501 34.282,30.182 16.096,41.18 -17.474,15.999 -27.254,-17.561 -42.591,-22.211 6.605,-8.97 14.977,-17.149 26.495,-18.969 z"
         id="path5"
         transform="matrix(0.00963474,-0.01007256,0.01007256,0.00963474,19.897979,2.4361813)" /><path
         fill-rule="evenodd"
         clip-rule="evenodd"
         fill="none"
         stroke="#000000"
         stroke-width="3"
         stroke-linecap="round"
         d="m 341.257,535.522 c -2.696,-5.361 -3.601,-11.618 -8.102,-15.939"
         id="path6"
         transform="matrix(0.00963474,-0.01007256,0.01007256,0.00963474,19.897979,2.4361813)" /><path
         fill-rule="evenodd"
         clip-rule="evenodd"
         fill="#f6d2a2"
         stroke="#000000"
         stroke-width="3"
         stroke-linecap="round"
         d="m 108.579,519.975 c -14.229,2.202 -22.238,15.039 -34.1,21.558 -11.178,6.665 -15.454,-2.134 -16.461,-3.92 -1.752,-0.799 -1.605,0.744 -4.309,-1.979 -10.362,-16.354 10.797,-28.308 21.815,-36.432 15.346,-3.102 24.963,10.202 33.055,20.773 z"
         id="path7"
         transform="matrix(0.00963474,-0.01007256,0.01007256,0.00963474,19.897979,2.4361813)" /><path
         fill-rule="evenodd"
         clip-rule="evenodd"
         fill="none"
         stroke="#000000"
         stroke-width="3"
         stroke-linecap="round"
         d="m 58.019,537.612 c 0.542,-6.233 5.484,-10.407 7.838,-15.677"
         id="path8"
         transform="matrix(0.00963474,-0.01007256,0.01007256,0.00963474,19.897979,2.4361813)" /><path
         fill-rule="evenodd"
         clip-rule="evenodd"
         d="M 49.513,91.667 C 41.558,87.459 35.722,81.744 40.588,72.543 45.093,64.025 53.462,64.95 61.418,69.158 Z"
         id="path9"
         transform="matrix(0.00963474,-0.01007256,0.01007256,0.00963474,19.897979,2.4361813)" /><path
         fill-rule="evenodd"
         clip-rule="evenodd"
         d="m 337.716,83.667 c 7.955,-4.208 13.791,-9.923 8.925,-19.124 -4.505,-8.518 -12.874,-7.593 -20.83,-3.385 z"
         id="path10"
         transform="matrix(0.00963474,-0.01007256,0.01007256,0.00963474,19.897979,2.4361813)" /><path
         fill-rule="evenodd"
         clip-rule="evenodd"
         fill="#f6d2a2"
         stroke="#000000"
         stroke-width="3"
         stroke-linecap="round"
         d="m 392.475,298.493 c -0.764,15.751 -16.499,8.463 -23.626,3.539 -6.765,-4.675 -8.743,-0.789 -9.337,-10.015 -0.389,-6.064 -1.088,-12.128 -0.744,-18.216 10.23,-0.927 21.357,1.509 29.744,7.602 4.319,3.139 12.42,13.158 3.963,17.09"
         id="path11"
         transform="matrix(0.00963474,-0.01007256,0.01007256,0.00963474,19.897979,2.4361813)" /><path
         fill-rule="evenodd"
         clip-rule="evenodd"
         fill="#c6b198"
         stroke="#000000"
         stroke-width="3"
         stroke-linecap="round"
         d="m 392.475,298.493 c -2.29,-0.852 -4.717,-1.457 -6.271,-3.528"
         id="path12"
         transform="matrix(0.00963474,-0.01007256,0.01007256,0.00963474,19.897979,2.4361813)" /><path
         fill-rule="evenodd"
         clip-rule="evenodd"
         fill="#6ad7e5"
         stroke="#000000"
         stroke-width="3"
         stroke-linecap="round"
         d="m 195.512,13.124 c 60.365,0 116.953,8.633 146.452,66.629 26.478,65.006 17.062,135.104 21.1,203.806 3.468,58.992 11.157,127.145 -16.21,181.812 -28.79,57.514 -100.73,71.982 -160,69.863 C 140.299,533.568 84.06,518.38 57.785,475.845 26.959,425.945 41.553,351.747 43.792,296.223 46.444,230.452 25.977,164.481 47.584,100.122 69.999,33.359 130.451,18.271 195.512,13.124"
         id="path13"
         transform="matrix(0.00963474,-0.01007256,0.01007256,0.00963474,19.897979,2.4361813)" /><path
         fill-rule="evenodd"
         clip-rule="evenodd"
         fill="#ffffff"
         stroke="#000000"
         stroke-width="2.9081"
         stroke-linecap="round"
         d="m 206.169,94.16 c 10.838,63.003 113.822,46.345 99.03,-17.197 -13.264,-56.98 -102.632,-41.208 -99.03,17.197"
         id="path14"
         transform="matrix(0.00963474,-0.01007256,0.01007256,0.00963474,19.897979,2.4361813)" /><path
         fill-rule="evenodd"
         clip-rule="evenodd"
         fill="#ffffff"
         stroke="#000000"
         stroke-width="2.8214"
         stroke-linecap="round"
         d="M 83.103,104.35 C 97.15,159.2 184.967,145.157 181.657,90.137 177.691,24.242 69.673,36.957 83.103,104.35"
         id="path15"
         transform="matrix(0.00963474,-0.01007256,0.01007256,0.00963474,19.897979,2.4361813)" /><path
         fill-rule="evenodd"
         clip-rule="evenodd"
         fill="#ffffff"
         stroke="#000000"
         stroke-width="3"
         stroke-linecap="round"
         d="m 218.594,169.762 c 0.046,8.191 1.861,17.387 0.312,26.101 -2.091,3.952 -6.193,4.37 -9.729,5.967 -4.89,-0.767 -9.002,-3.978 -10.963,-8.552 -1.255,-9.946 0.468,-19.576 0.785,-29.526 z"
         id="path16"
         transform="matrix(0.00963474,-0.01007256,0.01007256,0.00963474,19.897979,2.4361813)" /><path
         id="ellipse16"
         style="clip-rule:evenodd;fill-rule:evenodd"
         d="M 122.153,95.403999 A 14.829,16.062 0 0 1 107.324,111.466 14.829,16.062 0 0 1 92.494997,95.403999 a 14.829,16.062 0 0 1 14.829003,-16.062 14.829,16.062 0 0 1 14.829,16.062 z"
         transform="matrix(0.00963474,-0.01007256,0.01007256,0.00963474,19.897979,2.4361813)" /><path
         id="ellipse17"
         style="clip-rule:evenodd;fill:#ffffff;fill-rule:evenodd"
         d="m 117.565,99.028999 a 3.4960001,4.0819998 0 0 1 -3.496,4.082001 3.4960001,4.0819998 0 0 1 -3.496,-4.082001 3.4960001,4.0819998 0 0 1 3.496,-4.081999 3.4960001,4.0819998 0 0 1 3.496,4.081999 z"
         transform="matrix(0.00963474,-0.01007256,0.01007256,0.00963474,19.897979,2.4361813)" /><path
         id="ellipse18"
         style="clip-rule:evenodd;fill-rule:evenodd"
         d="M 246.153,91.403999 A 14.582,16.062 0 0 1 231.571,107.466 14.582,16.062 0 0 1 216.989,91.403999 a 14.582,16.062 0 0 1 14.582,-16.062 14.582,16.062 0 0 1 14.582,16.062 z"
         transform="matrix(0.00963474,-0.01007256,0.01007256,0.00963474,19.897979,2.4361813)" /><path
         id="ellipse19"
         style="clip-rule:evenodd;fill:#ffffff;fill-rule:evenodd"
         d="m 241.64199,95.028999 a 3.438,4.0819998 0 0 1 -3.438,4.082 3.438,4.0819998 0 0 1 -3.438,-4.082 3.438,4.0819998 0 0 1 3.438,-4.081999 3.438,4.0819998 0 0 1 3.438,4.081999 z"
         transform="matrix(0.00963474,-0.01007256,0.01007256,0.00963474,19.897979,2.4361813)" /><path
         fill-rule="evenodd"
         clip-rule="evenodd"
         fill="#ffffff"
         stroke="#000000"
         stroke-width="3"
         stroke-linecap="round"
         d="m 176.217,168.87 c -6.47,15.68 3.608,47.035 21.163,23.908 -1.255,-9.946 0.468,-19.576 0.785,-29.526 z"
         id="path19-5"
         transform="matrix(0.00963474,-0.01007256,0.01007256,0.00963474,19.897979,2.4361813)" /><path
         fill-rule="evenodd"
         clip-rule="evenodd"
         fill="#f6d2a2"
         stroke="#231f20"
         stroke-width="3"
         stroke-linecap="round"
         d="m 178.431,138.673 c -12.059,1.028 -21.916,15.366 -15.646,26.709 8.303,15.024 26.836,-1.329 38.379,0.203 13.285,0.272 24.17,14.047 34.84,2.49 11.867,-12.854 -5.109,-25.373 -18.377,-30.97 z"
         id="path20-9"
         transform="matrix(0.00963474,-0.01007256,0.01007256,0.00963474,19.897979,2.4361813)" /><path
         fill-rule="evenodd"
         clip-rule="evenodd"
         d="m 176.913,138.045 c -0.893,-20.891 38.938,-23.503 43.642,-6.016 4.692,17.446 -41.681,21.498 -43.642,6.016 -1.565,-12.363 0,0 0,0 z"
         id="path21-2"
         transform="matrix(0.00963474,-0.01007256,0.01007256,0.00963474,19.897979,2.4361813)" /></g></g><g
     id="layer1"
     transform="translate(-84.566464,-136.39409)"><g
       id="g1"
       transform="matrix(0.26458333,0,0,0.26458333,84.566464,142.00448)"><g
         id="layer1-1"><path
           id="rect3466-2"
           class="st6"
           d="m 95.6,0.5 v 0 c 0.6,0 1,0.4 1,1 v 45.9 c 0,0.6 -0.4,1 -1,1 v 0 c -0.6,0 -1,-0.4 -1,-1 V 1.5 c 0,-0.6 0.4,-1 1,-1 z" /><g
           id="g2374"><path
             id="path1226"
             class="st5"
             d="m 8.8,13.8 c -2.6,0 -4.7,0.8 -6.2,2.3 -1.6,1.5 -2.3,3.5 -2.3,5.9 0,3.6 2,6.3 5.7,7.8 l 3.4,1.4 c 1.3,0.6 2.1,1.2 2.6,1.7 0.4,0.6 0.7,1.3 0.7,2.3 0,1 -0.4,2.3 -1,2.9 C 11,38.7 10.1,39 8.8,39 7.5,39 6.5,38.7 5.8,38 5.1,37.3 4.7,36.4 4.7,35 V 34.7 C 4.7,34.3 4.4,34 4,34 H 0.7 C 0.3,34 0,34.3 0,34.7 V 35 c 0,2.7 0.7,4.8 2.3,6.3 1.6,1.5 3.7,2.3 6.3,2.3 2.6,0 4.9,-0.7 6.5,-2.3 1.6,-1.5 2.4,-3.7 2.4,-6.3 0,-2.6 -0.5,-3.8 -1.6,-5.1 v 0 c -1,-1.2 -2.5,-2.2 -4.4,-3 v 0 L 8.1,25.5 C 6.9,25 6.2,24.5 5.8,23.9 v 0 C 5.4,23.3 5.2,22.7 5.2,21.8 c 0,-0.9 0.3,-1.9 0.9,-2.5 0.6,-0.6 1.5,-0.9 2.7,-0.9 1.2,0 2.2,0.4 2.8,1.1 0.6,0.7 1,1.8 1,3.2 V 23 c 0,0.4 0.3,0.7 0.7,0.7 h 3.3 c 0.4,0 0.7,-0.3 0.7,-0.7 v 0 -0.7 c 0,-2.5 -0.8,-4.6 -2.3,-6.1 -1.5,-1.5 -3.6,-2.4 -6.1,-2.4 z" /><path
             id="path1232"
             class="st5"
             d="m 21.9,5.2 c -0.4,0 -0.7,0.3 -0.7,0.7 v 29.5 c 0,2.5 0.6,4.5 2.1,5.9 1.4,1.4 3.4,2.1 5.9,2.1 h 0.9 c 0.4,0 0.7,-0.3 0.7,-0.7 v -3.3 c 0,-0.4 -0.3,-0.7 -0.7,-0.7 h -0.8 c -1.2,0 -1.9,-0.3 -2.3,-0.8 -0.5,-0.5 -0.8,-1.4 -0.8,-2.7 V 5.9 c 0,-0.4 -0.3,-0.7 -0.7,-0.7 h -3.7 c 0,0 0.1,0 0.1,0 z" /><path
             id="path1238"
             class="st5"
             d="m 34.6,5.3 c -0.4,0 -0.7,0.3 -0.7,0.7 v 4.8 c 0,0.4 0.3,0.7 0.7,0.7 h 3.7 c 0.4,0 0.7,-0.3 0.7,-0.7 V 6 C 39,5.6 38.7,5.3 38.3,5.3 Z m 0,9.1 c -0.4,0 -0.7,0.4 -0.7,0.8 v 27.6 c 0,0.4 0.3,0.7 0.7,0.7 h 3.6 c 0.4,0 0.7,-0.3 0.7,-0.7 V 15.1 c 0,-0.4 -0.3,-0.7 -0.7,-0.7 z" /><path
             id="path1244"
             class="st5"
             d="m 56.8,5.2 c -0.4,0 -0.7,0.3 -0.7,0.7 V 16.2 C 54.9,14.9 53.4,14 51.5,14 c -1.9,0 -4.3,0.9 -5.8,2.6 -1.5,1.7 -2.1,4.2 -2.1,7.5 v 9.7 c 0,3.3 0.6,5.8 2.1,7.5 1.4,1.7 3.4,2.5 5.8,2.5 2.4,0 3.3,-0.8 4.6,-2 v 1 c 0,0.4 0.3,0.7 0.7,0.7 h 3.6 c 0.4,0 0.7,-0.3 0.7,-0.7 V 5.9 c 0,-0.4 -0.3,-0.7 -0.7,-0.7 z m -4.4,13.4 c 1.3,0 2.1,0.4 2.8,1.4 0.6,0.9 1,2.5 1,4.6 v 8.8 c 0,2 -0.4,3.6 -1,4.5 v 0 c -0.7,1 -1.5,1.4 -2.8,1.4 -1.3,0 -2.1,-0.4 -2.7,-1.2 -0.6,-0.8 -0.9,-2.4 -0.9,-4.7 v -8.8 c 0,-2.1 0.4,-3.6 1,-4.5 0.6,-0.9 1.3,-1.5 2.6,-1.5" /><path
             id="path1250"
             class="st5"
             d="m 74.3,13.9 c -2.7,0 -4.9,1 -6.5,2.8 v 0 c -1.6,1.8 -2.3,4.4 -2.3,7.7 v 8.9 c 0,3.4 0.7,6 2.2,7.8 1.5,1.8 3.8,2.7 6.7,2.7 2.9,0 4.8,-0.7 6.4,-2.4 v 0 c 1.5,-1.6 2.3,-4 2.3,-7 v -0.2 c 0,-0.4 -0.3,-0.7 -0.7,-0.7 h -3.6 c -0.4,0 -0.7,0.3 -0.7,0.7 v 0 0.2 c 0,1.7 -0.4,3 -1,3.7 -0.6,0.7 -1.4,1.1 -2.7,1.1 -1.3,0 -2.3,-0.4 -3,-1.3 v 0 c -0.7,-0.8 -1.1,-2.4 -1.1,-4.7 v -2.6 h 12.1 c 0.4,0 0.7,-0.3 0.7,-0.7 v -5.6 c 0,-3.3 -0.8,-5.9 -2.4,-7.7 v 0 c -1.6,-1.7 -3.8,-2.7 -6.5,-2.7 v 0 z m 0.1,4.6 c 1.3,0 2.2,0.5 2.9,1.3 0.6,0.8 1.1,2.3 1.1,4.5 v 2.2 h -7.8 v -2.1 c 0,-2.3 0.4,-3.8 1,-4.6 v 0 c 0.6,-0.8 1.5,-1.3 2.9,-1.3 v 0 z" /></g><g
           id="g28972"><path
             id="rect6364-6"
             class="st7"
             d="m 137.2,12.4 v 0 c 2.7,-1.7 6.3,-0.9 8,1.8 v 0 c 1.7,2.7 0.9,6.3 -1.8,8 v 0 c -2.7,1.7 -6.3,0.9 -8,-1.8 v 0 c -1.7,-2.7 -0.9,-6.3 1.8,-8 z"
             style="fill:url(#linear-gradient)" /><path
             id="rect6364-6-9"
             class="st8"
             d="m 144.4,23.8 v 0 c 2.7,-1.7 6.3,-0.9 8,1.8 v 0 c 1.7,2.7 0.9,6.3 -1.8,8 v 0 c -2.7,1.7 -6.3,0.9 -8,-1.8 v 0 c -1.7,-2.7 -0.9,-6.3 1.8,-8 z"
             style="fill:url(#linear-gradient1)" /><path
             id="rect6364-6-7"
             class="st9"
             d="m 114.4,26.9 v 0 c 2.7,-1.7 6.3,-0.9 8,1.8 v 0 c 1.7,2.7 0.9,6.3 -1.8,8 v 0 c -2.7,1.7 -6.3,0.9 -8,-1.8 v 0 c -1.7,-2.7 -0.9,-6.3 1.8,-8 z"
             style="fill:url(#linear-gradient2)" /><path
             id="rect6364-6-5"
             class="st10"
             d="m 107,15.6 v 0 c 2.7,-1.7 6.3,-0.9 8,1.8 v 0 c 1.7,2.7 0.9,6.3 -1.8,8 v 0 c -2.7,1.7 -6.3,0.9 -8,-1.8 v 0 c -1.7,-2.7 -0.9,-6.3 1.8,-8 z"
             style="fill:url(#linear-gradient3)" /><g
             id="g28748"><path
               id="rect6364-2"
               class="st4"
               d="m 136.1,10.7 v 0 c -2.7,1.8 -6.3,1 -8,-1.7 v 0 c -1.7,-2.7 -0.9,-6.3 1.8,-8 v 0 c 2.7,-1.8 6.3,-1 8,1.7 v 0 c 1.7,2.7 0.9,6.3 -1.8,8 z"
               style="fill:url(#linear-gradient4)" /><path
               id="rect6364-2-8"
               class="st3"
               d="m 124.7,18 v 0 c -2.7,1.8 -6.3,1 -8,-1.7 v 0 c -1.7,-2.7 -0.9,-6.3 1.8,-8 v 0 c 2.7,-1.8 6.3,-1 8,1.7 v 0 c 1.7,2.7 0.9,6.3 -1.8,8 z"
               style="fill:url(#linear-gradient5)" /><path
               id="rect6364-2-8-2"
               class="st0"
               d="m 132,29.4 v 0 c -2.7,1.8 -6.3,1 -8,-1.7 v 0 c -1.7,-2.7 -0.9,-6.3 1.8,-8 v 0 c 2.7,-1.8 6.3,-1 8,1.7 v 0 c 1.7,2.7 0.9,6.3 -1.8,8 z"
               style="fill:url(#linear-gradient6)" /><path
               id="rect6364-2-8-0"
               class="st2"
               d="m 139.3,40.8 v 0 c -2.7,1.8 -6.3,1 -8,-1.7 v 0 c -1.7,-2.7 -0.9,-6.3 1.8,-8 v 0 c 2.7,-1.8 6.3,-1 8,1.7 v 0 c 1.7,2.7 0.9,6.3 -1.8,8 z"
               style="fill:url(#linear-gradient7)" /><path
               id="rect6364-2-8-23"
               class="st1"
               d="m 127.9,48.1 v 0 c -2.7,1.8 -6.3,1 -8,-1.7 v 0 c -1.7,-2.7 -0.9,-6.3 1.8,-8 v 0 c 2.7,-1.8 6.3,-1 8,1.7 v 0 c 1.7,2.7 0.9,6.3 -1.8,8 z"
               style="fill:url(#linear-gradient8)" /></g></g></g><g
         id="g19"><path
           class="st5"
           d="m 86.7,14.4 v 3.7 h -0.5 v -3.7 h -1 V 14 h 2.6 v 0.4 h -1 z"
           id="path18" /><path
           class="st5"
           d="m 91.7,18.1 h -0.5 v -3.2 l -1,2.2 h -0.3 l -1,-2.2 v 3.2 H 88.4 V 14 h 0.5 l 1.2,2.6 1.2,-2.6 h 0.5 v 4.1 z"
           id="path19" /></g><g
         id="g21"><path
           class="st5"
           d="m 150.1,14.4 v 3.7 h -0.5 v -3.7 h -1 V 14 h 2.6 v 0.4 h -1 z"
           id="path20" /><path
           class="st5"
           d="m 155.1,18.1 h -0.5 v -3.2 l -1,2.2 h -0.3 l -1,-2.2 v 3.2 h -0.5 V 14 h 0.5 l 1.2,2.6 1.2,-2.6 h 0.5 v 4.1 z"
           id="path21" /></g></g></g></svg>
